<?xml version="1.0" encoding="UTF-8" standalone="no"?>
<!-- Created with Inkscape (http://www.inkscape.org/) -->

<svg
   width="768.00024mm"
   height="36mm"
   viewBox="0 0 768.00024 36"
   version="1.1"
   id="svg1"
   xmlns="http://www.w3.org/2000/svg"
   xmlns:svg="http://www.w3.org/2000/svg">
  <defs
     id="defs1" />
  <g
     id="layer3"
     transform="translate(-16.000001,-31.999999)">
    <g
       id="g590">
      <g
         id="use338">
        <path
           id="path451"
           style="fill:#999999;fill-opacity:1;stroke-width:0.264583"
           d="M 16,68 V 50 L 32,32 h 16 z" />
        <path
           id="path452"
           style="fill:#999999;stroke-width:0.198437"
           d="M 64.000228,32.000114 32.000114,67.999984 H 48.000171 L 79.999768,32.000114 Z" />
      </g>
      <g
         id="use339"
         transform="translate(32)">
        <path
           id="path454"
           style="fill:#999999;stroke-width:0.198437"
           d="m 63.999825,32.000114 -31.999597,35.99987 h 15.99954 l 32.000114,-35.99987 z" />
      </g>
      <g
         id="use340"
         transform="translate(64)">
        <path
           id="path456"
           style="fill:#999999;stroke-width:0.198437"
           d="M 63.999939,32.000114 31.999825,67.999984 H 47.999882 L 79.999996,32.000114 Z" />
      </g>
      <g
         id="use341"
         transform="translate(95.999999)">
        <path
           id="path458"
           style="fill:#999999;stroke-width:0.198437"
           d="M 64.000054,32.000114 31.99994,67.999984 h 16.000057 l 32.000114,-35.99987 z" />
      </g>
      <g
         id="use342"
         transform="translate(128)">
        <path
           id="path460"
           style="fill:#999999;stroke-width:0.198437"
           d="M 64.000167,32.000114 32.000053,67.999984 H 48.00011 l 32.000114,-35.99987 z" />
      </g>
      <g
         id="use343"
         transform="translate(160)">
        <path
           id="path462"
           style="fill:#999999;stroke-width:0.198437"
           d="M 63.999764,32.000114 32.000167,67.999984 H 48.000224 L 79.999821,32.000114 Z" />
      </g>
      <g
         id="use344"
         transform="translate(192)">
        <path
           id="path464"
           style="fill:#999999;stroke-width:0.198437"
           d="M 63.999878,32.000114 31.999764,67.999984 H 47.999821 L 79.999935,32.000114 Z" />
      </g>
      <g
         id="use345"
         transform="translate(224)">
        <path
           id="path466"
           style="fill:#999999;stroke-width:0.198437"
           d="M 63.999992,32.000114 31.999878,67.999984 H 47.999935 L 80.000049,32.000114 Z" />
      </g>
      <g
         id="use346"
         transform="translate(256)">
        <path
           id="path468"
           style="fill:#999999;stroke-width:0.198437"
           d="M 64.000106,32.000114 31.999992,67.999984 H 48.000049 L 80.000163,32.000114 Z" />
      </g>
      <g
         id="use347"
         transform="translate(288)">
        <path
           id="path470"
           style="fill:#999999;stroke-width:0.198437"
           d="M 64.00022,32.000114 32.000106,67.999984 H 48.000163 L 79.99976,32.000114 Z" />
      </g>
      <g
         id="use348"
         transform="translate(320)">
        <path
           id="path472"
           style="fill:#999999;stroke-width:0.198437"
           d="M 63.999817,32.000114 32.00022,67.999984 h 15.99954 l 32.000114,-35.99987 z" />
      </g>
      <g
         id="use349"
         transform="translate(352)">
        <path
           id="path474"
           style="fill:#999999;stroke-width:0.198437"
           d="M 63.999931,32.000114 31.999817,67.999984 H 47.999874 L 79.999988,32.000114 Z" />
      </g>
      <g
         id="use350"
         transform="translate(384)">
        <path
           id="path476"
           style="fill:#999999;stroke-width:0.198437"
           d="M 64.000045,32.000114 31.999931,67.999984 H 47.999988 L 80.000102,32.000114 Z" />
      </g>
      <g
         id="use351"
         transform="translate(416)">
        <path
           id="path478"
           style="fill:#999999;stroke-width:0.198437"
           d="M 64.000159,32.000114 32.000045,67.999984 H 48.000102 L 80.000216,32.000114 Z" />
      </g>
      <g
         id="use352"
         transform="translate(448)">
        <path
           id="path480"
           style="fill:#999999;stroke-width:0.198437"
           d="M 63.999756,32.000114 32.000159,67.999984 H 48.000216 L 79.999813,32.000114 Z" />
      </g>
      <g
         id="use353"
         transform="translate(480)">
        <path
           id="path482"
           style="fill:#999999;stroke-width:0.198437"
           d="M 63.99987,32.000114 31.999756,67.999984 H 47.999813 L 79.999927,32.000114 Z" />
      </g>
      <g
         id="use354"
         transform="translate(512)">
        <path
           id="path484"
           style="fill:#999999;stroke-width:0.198437"
           d="M 63.999984,32.000114 31.99987,67.999984 h 16.000057 l 32.000114,-35.99987 z" />
      </g>
      <g
         id="use355"
         transform="translate(544)">
        <path
           id="path486"
           style="fill:#999999;stroke-width:0.198437"
           d="M 64.000098,32.000114 31.999984,67.999984 H 48.000041 L 80.000155,32.000114 Z" />
      </g>
      <g
         id="use356"
         transform="translate(576)">
        <path
           id="path488"
           style="fill:#999999;stroke-width:0.198437"
           d="M 64.000212,32.000114 32.000098,67.999984 H 48.000155 L 79.999752,32.000114 Z" />
      </g>
      <g
         id="use357"
         transform="translate(608)">
        <path
           id="path490"
           style="fill:#999999;stroke-width:0.198437"
           d="m 63.999809,32.000114 -31.999597,35.99987 h 15.99954 l 32.000114,-35.99987 z" />
      </g>
      <g
         id="use358"
         transform="translate(640)">
        <path
           id="path492"
           style="fill:#999999;stroke-width:0.198437"
           d="M 63.999923,32.000114 31.999809,67.999984 H 47.999866 L 79.99998,32.000114 Z" />
      </g>
      <g
         id="use359"
         transform="translate(671.99999)">
        <path
           id="path494"
           style="fill:#999999;stroke-width:0.198437"
           d="M 64.000047,32.000114 31.999933,67.999984 H 47.99999 l 32.000114,-35.99987 z" />
      </g>
      <g
         id="use360"
         transform="translate(703.99999)">
        <path
           id="path496"
           style="fill:#999999;stroke-width:0.198437"
           d="M 64.000161,32.000114 32.000047,67.999984 H 48.000104 L 80.000218,32.000114 Z" />
      </g>
      <g
         id="use361"
         transform="translate(735.99999)">
        <path
           id="path498"
           style="fill:#999999;stroke-width:0.198437"
           d="M 48,68 H 32 L 48,50 Z" />
      </g>
    </g>
  </g>
</svg>
